<?xml version="1.0" standalone="no"?><!DOCTYPE svg PUBLIC "-//W3C//DTD SVG 1.1//EN" "http://www.w3.org/Graphics/SVG/1.1/DTD/svg11.dtd"><svg t="1556170680444" class="icon" style="" viewBox="0 0 1026 1024" version="1.1" xmlns="http://www.w3.org/2000/svg" p-id="1247" xmlns:xlink="http://www.w3.org/1999/xlink" width="200.390625" height="200"><defs><style type="text/css"></style></defs><path d="M431.36779 935.569823 431.36779 935.569823c-101.379715-0.061401-193.683292-21.60917-274.460818-64.241128-84.122875-44.421806-134.751331-104.004621-150.39434-177.140753-26.211199-122.097543 56.54038-229.80057 60.063792-234.33608 89.373711-114.034526 173.73605-192.724408 244.125497-227.532814 48.483503-23.940374 92.12449-36.121372 129.798291-36.121372 31.581767 0 50.925229 8.595161 61.613152 15.759671 26.329908 17.554637 45.436975 33.911947 50.21195 82.391357 1.315012 13.254498 0 25.076298-2.328133 35.405023 30.388535-10.747277 71.107842-23.706025 110.094608-23.706025 77.137451 2.03443 120.542043 30.333274 133.916273 84.302985 5.490301 18.986311 2.62593 54.331979-9.31458 79.348922 59.939966 12.539172 99.463994 42.570557 119.1687 89.734955 31.22564 74.692656-7.999568 175.11144-102.333482 262.100733C740.036305 878.134008 593.164354 935.569823 431.36779 935.569823zM440.501236 257.334967c-19.402816 0-52.899281 5.195575-102.690633 29.791919-62.153483 30.810158-139.350289 103.584022-223.113966 210.397753-0.596616 0.836081-68.656906 89.375757-48.480433 183.830427 11.703091 54.625682 51.824758 100.297005 119.230101 135.880092 71.824191 37.91429 154.571676 57.138019 245.921485 57.200444l0 0c144.599079 0 277.262764-50.448346 328.726278-97.91668 73.79415-67.941581 108.066318-143.945155 87.406822-193.439733-16.596776-39.703115-53.491804-50.33066-83.824055-55.167037-36.062017-6.089987-46.568806-24.119461-49.912107-34.266028-2.984104-9.558138-5.012394-28.541379 15.40559-49.08012 4.060674-5.432993 7.880859-28.178088 6.449185-35.942284-4.061697-16.178224-9.912219-39.760423-72.361452-41.372208l-0.121779 0c-37.13347 0-76.2983 14.14584-104.961458 24.539036-21.014601 7.640371-33.670436 12.179975-45.135085 12.179975l-12.178951 0-12.237283-9.316627c-20.957293-19.525619-10.507812-45.19444-4.955086-58.988245 4.478203-10.985719 9.074091-22.268211 7.75908-35.342598-2.266732-23.524891-5.969231-25.972757-21.493531-36.301482C467.186249 262.108919 459.487547 257.334967 440.501236 257.334967z" p-id="1248"></path><path d="M392.439355 859.150767c-148.305671 0-261.563471-71.525371-275.413561-173.979609-5.9109-43.34319 6.983376-87.465153 37.433313-127.465041 49.436247-65.019901 140.067661-112.124945 242.518829-126.033367 20.537717-2.747709 41.312853-4.1845 61.732884-4.1845 148.304648 0 261.619756 71.526394 275.65098 173.85783 16.059515 118.69284-106.928347 230.099389-279.950095 253.622234C433.755278 857.717046 412.915671 859.150767 392.439355 859.150767zM458.71082 488.625542c-17.432857 0-35.346692 1.193232-53.555252 3.703523-86.630095 11.705138-162.215116 50.03184-202.036941 102.395907-14.211335 18.684421-30.153164 48.119189-25.493827 82.2092 10.86701 80.839951 130.510546 136.481824 268.546847 117.376805 134.453534-18.267915 238.696597-102.809342 227.591146-184.721769C664.209772 539.493463 573.699114 488.625542 458.71082 488.625542z" p-id="1249"></path><path d="M873.295584 447.191933c-2.925773 0-5.916017-0.419576-8.836673-1.315012-16.181294-4.893685-25.31474-21.970415-20.419008-38.090307 11.642713-38.448481 7.042731-70.690313-13.734451-95.942628-21.371752-29.253634-70.925685-35.640395-83.582543-32.660384-16.538445 3.88261-32.838448-6.445092-36.661703-22.923158-3.820185-16.418712 6.449185-32.838448 22.926228-36.65761 30.750803-6.929139 107.111528 1.967912 145.678718 54.806816 18.329317 22.208856 47.404887 73.434952 23.881019 151.05031C898.546875 438.713435 886.429326 447.191933 873.295584 447.191933z" p-id="1250"></path><path d="M987.565482 483.375729c-2.148023 0-4.296045-0.240488-6.506493-0.722489-16.535375-3.520342-26.985879-19.817275-23.462467-36.294319 20.539764-95.173065-6.628272-175.769457-78.630527-232.967854-76.421103-60.656315-158.512617-50.98663-181.920846-46.629184-16.355264 3.105883-32.477203-7.75908-35.698726-24.357903-3.10793-16.597799 7.75908-32.535535 24.357903-35.701796 29.792942-5.671435 134.512889-18.033567 231.292622 58.808135 90.152484 71.64408 125.795949 175.946498 100.421854 293.742878C1014.313942 473.580172 1001.656061 483.375729 987.565482 483.375729z" p-id="1251"></path><path d="M543.249177 634.721789c-12.237283-61.437135-81.076346-99.524372-153.677263-84.896531-72.71758 14.506061-121.735275 76.059858-109.435568 137.433545 12.240353 61.438158 81.137747 99.470134 153.737641 85.01831C506.593614 757.65132 555.547861 696.219302 543.249177 634.721789zM378.767329 718.786333c-25.614583 5.971278-50.51077-6.509563-55.525211-27.944763-4.95304-21.311374 11.759376-43.582655 37.433313-49.611241 25.733292-5.976395 50.51077 6.50854 55.527258 27.880291C421.216106 690.429158 404.498574 712.753653 378.767329 718.786333zM443.067811 653.290571c-10.629591 2.326087-20.836537-2.925773-22.686763-11.642713-1.911628-8.715917 5.252883-17.672322 15.942852-19.942124 10.682806-2.263662 20.83449 2.986151 22.624339 11.645783C460.856796 642.124741 453.754711 651.019746 443.067811 653.290571z" p-id="1252"></path></svg>