<?xml version="1.0" standalone="no"?><!DOCTYPE svg PUBLIC "-//W3C//DTD SVG 1.1//EN" "http://www.w3.org/Graphics/SVG/1.1/DTD/svg11.dtd"><svg t="1557401417168" class="icon" style="" viewBox="0 0 1024 1024" version="1.1" xmlns="http://www.w3.org/2000/svg" p-id="1120" xmlns:xlink="http://www.w3.org/1999/xlink" width="200" height="200"><defs><style type="text/css"></style></defs><path d="M85.333333 773.12l85.333334 85.333333H85.333333z" p-id="1121"></path><path d="M341.333333 875.52H85.333333a17.066667 17.066667 0 0 1-17.066666-17.066667v-256-0.068266-0.0512-0.034134-0.017066-0.0512-0.0512a16.9984 16.9984 0 0 1 4.9664-11.758934l0.034133-0.034133 426.666667-426.666667 73.454933-72.6016c0.426667-0.426667 0.887467-0.8192 1.365333-1.211733 42.632533-33.962667 88.0128-33.979733 131.242667-0.068267a14.421333 14.421333 0 0 1 1.536 1.365334l145.92 145.92a16.964267 16.964267 0 0 1 1.3824 1.553066c33.297067 42.615467 33.006933 87.944533-0.8704 131.1232a16.8448 16.8448 0 0 1-1.365333 1.536l-499.2 499.2a17.032533 17.032533 0 0 1-11.793067 5.000534h-0.0512-0.136533L341.333333 875.52z m-163.601066-34.133333h122.402133L102.4 643.652267v122.402133l75.332267 75.332267zM102.4 841.386667h27.067733L102.4 814.318933V841.386667z m178.5856-67.413334L341.333333 834.321067l486.382934-486.382934c23.2448-30.1056 23.517867-57.941333 0.836266-87.4496l-144.401066-144.418133c-30.1056-23.227733-57.941333-23.1936-87.432534-0.017067l-72.721066 71.867734L109.4656 602.453333 170.666667 663.6544l414.600533-414.600533a17.0496 17.0496 0 1 1 24.132267 24.132266L194.798933 687.786667l62.0544 62.0544 414.600534-414.583467a17.0496 17.0496 0 1 1 24.132266 24.132267L280.9856 773.973333z" p-id="1122"></path><path d="M743.867733 455.918933l-84.48-84.48 24.132267-24.132266-24.132267 24.132266-171.52-171.52 48.264534-48.264533 256 256zM938.666667 977.92H85.333333a34.133333 34.133333 0 0 1 0-68.266667h853.333334a34.133333 34.133333 0 0 1 0 68.266667z" p-id="1123"></path></svg>